<svg width="20" height="14" viewBox="0 0 20 14" fill="none" xmlns="http://www.w3.org/2000/svg">
<ellipse cx="9.99809" cy="7.18625" rx="1.8" ry="1.75" stroke="#677A8E" stroke-linecap="round" stroke-linejoin="round"/>
<path d="M14.1624 3.11756C13.9643 2.92518 13.6478 2.92981 13.4554 3.12791C13.263 3.32601 13.2676 3.64256 13.4657 3.83494L14.1624 3.11756ZM13.4657 10.5463C13.2676 10.7387 13.263 11.0552 13.4554 11.2533C13.6478 11.4514 13.9643 11.4561 14.1624 11.2637L13.4657 10.5463ZM5.83374 11.2549C6.03184 11.4473 6.34839 11.4427 6.54077 11.2446C6.73315 11.0465 6.72852 10.7299 6.53042 10.5376L5.83374 11.2549ZM6.53042 3.82619C6.72852 3.63381 6.73315 3.31726 6.54077 3.11916C6.34839 2.92106 6.03184 2.91643 5.83374 3.10881L6.53042 3.82619ZM16.7097 0.641555C16.5117 0.449032 16.1952 0.453443 16.0026 0.651407C15.8101 0.84937 15.8145 1.16592 16.0125 1.35844L16.7097 0.641555ZM16.0125 13.0141C15.8145 13.2066 15.8101 13.5231 16.0026 13.7211C16.1952 13.9191 16.5117 13.9235 16.7097 13.7309L16.0125 13.0141ZM3.28648 13.7309C3.48445 13.9235 3.801 13.9191 3.99352 13.7211C4.18605 13.5231 4.18164 13.2066 3.98367 13.0141L3.28648 13.7309ZM3.98367 1.35844C4.18164 1.16592 4.18605 0.84937 3.99352 0.651407C3.801 0.453443 3.48445 0.449032 3.28648 0.641555L3.98367 1.35844ZM13.4657 3.83494C14.3844 4.72705 14.8978 5.93455 14.8978 7.19062H15.8978C15.8978 5.6599 15.2718 4.19492 14.1624 3.11756L13.4657 3.83494ZM14.8978 7.19062C14.8978 8.4467 14.3844 9.6542 13.4657 10.5463L14.1624 11.2637C15.2718 10.1863 15.8978 8.72135 15.8978 7.19062H14.8978ZM6.53042 10.5376C5.6118 9.64545 5.09833 8.43795 5.09833 7.18187H4.09833C4.09833 8.7126 4.72437 10.1776 5.83374 11.2549L6.53042 10.5376ZM5.09833 7.18187C5.09833 5.9258 5.6118 4.7183 6.53042 3.82619L5.83374 3.10881C4.72437 4.18617 4.09833 5.65115 4.09833 7.18187H5.09833ZM16.0125 1.35844C19.324 4.57899 19.324 9.79351 16.0125 13.0141L16.7097 13.7309C20.425 10.1177 20.425 4.25476 16.7097 0.641555L16.0125 1.35844ZM3.98367 13.0141C0.67211 9.79351 0.67211 4.57899 3.98367 1.35844L3.28648 0.641555C-0.428828 4.25476 -0.428828 10.1177 3.28648 13.7309L3.98367 13.0141Z" fill="#677A8E"/>
</svg>
