<svg width="23" height="18" viewBox="0 0 23 18" fill="none" xmlns="http://www.w3.org/2000/svg">
<path fill-rule="evenodd" clip-rule="evenodd" d="M21.5193 5.87901C20.6169 5.19655 19.3787 5.28262 18.5349 6.24512C17.8964 6.97335 17.1618 7.77362 16.3312 8.64575C16.1038 7.75049 15.2881 7.0841 14.3111 7.07147L12.7502 7.07143H8.58871C7.49707 7.07143 6.30322 7.63147 5.48969 8.46353C4.87404 9.09321 4.35801 9.6523 3.94105 10.1418C3.79665 10.3113 6.01975 14.9275 6.62697 14.9275H14.817C15.7013 14.9275 16.692 14.3274 17.8495 13.2396C18.3738 12.747 18.9227 12.1618 19.5173 11.474C19.9217 11.0061 20.7791 9.95359 21.3336 9.27287C21.5978 8.94852 21.7933 8.70858 21.8382 8.6565C22.6266 7.74295 22.4189 6.55944 21.5193 5.87901ZM17.1745 12.5417C16.1879 13.4689 15.3718 13.9632 14.817 13.9632H6.2637L4.46011 11.0375C4.89272 10.5077 5.47102 9.87221 6.19407 9.13269C6.83243 8.4798 7.77907 8.03572 8.58871 8.03572H14.3047C14.9173 8.04367 15.416 8.54137 15.416 9.15269C15.416 9.4155 15.3242 9.66314 15.1585 9.86168C14.7602 10.3389 15.4531 10.9476 15.8883 10.5027C17.2155 9.14613 18.3443 7.93727 19.2751 6.87563C19.771 6.31 20.4222 6.26473 20.9237 6.64404C21.4009 7.00492 21.4986 7.56177 21.0931 8.03171C21.0415 8.09146 20.8283 8.35307 20.5459 8.6997C19.9879 9.38445 19.1596 10.401 18.7726 10.8486C18.1983 11.5131 17.6712 12.0749 17.1745 12.5417Z" fill="#677A8E"/>
<path fill-rule="evenodd" clip-rule="evenodd" d="M3.1064 9.04685L0.564799 10.5142C0.252869 10.6943 0.143908 11.0896 0.321429 11.3971L3.69643 17.2427C3.87395 17.5502 4.27073 17.6535 4.58266 17.4734L7.12425 16.006C7.43618 15.8259 7.54514 15.4306 7.36762 15.1232L3.99262 9.2775C3.8151 8.97002 3.41833 8.86676 3.1064 9.04685ZM6.35971 15.3339L4.38291 16.4752L1.32934 11.1863L3.30614 10.045L6.35971 15.3339Z" fill="#677A8E"/>
<path d="M10.8649 8.03571C10.5948 8.03571 10.3758 7.81985 10.3758 7.55357C10.3758 7.28729 10.5948 7.07143 10.8649 7.07143H14.2747C15.4453 7.07143 16.3943 8.00683 16.3943 9.16071C16.3943 10.3146 15.4453 11.25 14.2747 11.25H11.0138C10.7437 11.25 10.5247 11.0341 10.5247 10.7679C10.5247 10.5016 10.7437 10.2857 11.0138 10.2857H14.2747C14.905 10.2857 15.416 9.78203 15.416 9.16071C15.416 8.53939 14.905 8.03571 14.2747 8.03571H10.8649Z" fill="#677A8E"/>
<path d="M8.12207 6.26786C7.58505 5.60752 7.26382 4.76931 7.26382 3.85714C7.26382 1.7269 9.01575 0 11.1769 0C13.338 0 15.0899 1.7269 15.0899 3.85714C15.0899 4.76931 14.7687 5.60752 14.2317 6.26786H12.7997C13.5905 5.74959 14.1117 4.86336 14.1117 3.85714C14.1117 2.25946 12.7977 0.964286 11.1769 0.964286C9.55603 0.964286 8.24209 2.25946 8.24209 3.85714C8.24209 4.86336 8.76326 5.74959 9.55403 6.26786H8.12207Z" fill="#677A8E"/>
</svg>
